<?xml version="1.0" encoding="utf-8"?>
<!-- Generator: Adobe Illustrator 22.1.0, SVG Export Plug-In . SVG Version: 6.00 Build 0)  -->
<svg version="1.1" id="Layer_1" xmlns="http://www.w3.org/2000/svg" xmlns:xlink="http://www.w3.org/1999/xlink" x="0px" y="0px"
	 viewBox="0 0 1280 1024" style="enable-background:new 0 0 1280 1024;" xml:space="preserve">
<style type="text/css">
	.st0{fill:#161925;}
	.st1{fill:#FFC72C;}
</style>
<path class="st0" d="M359.7,477.4c0-2.7,1.5-4.9,4.4-6.7c2.9-1.8,5.9-2.7,8.9-2.7c3.2,0,5.9,2,8,5.9l46.9,91.5l46.7-91.5
	c2.1-3.9,4.8-5.9,8-5.9s6.2,0.9,9.1,2.7c2.8,1.8,4.3,4,4.3,6.7c0,1.4-0.4,2.9-1.1,4.5l-55.2,102.9c-0.4,0.5-0.5,1.4-0.5,2.7V655
	c0,2.5-1.1,4.4-3.3,5.9c-2.2,1.4-4.8,2.1-7.9,2.1c-3,0-5.6-0.7-7.9-2.1c-2.2-1.4-3.3-3.4-3.3-5.9v-67.5c0-0.9-0.3-1.8-0.8-2.7
	l-55.2-102.9C360.1,480.3,359.7,478.8,359.7,477.4z"/>
<path class="st0" d="M518.7,606.4V475.8c0-2.5,1.1-4.4,3.3-5.7c2.2-1.3,4.8-2,7.9-2c3,0,5.6,0.7,7.9,2c2.2,1.3,3.3,3.2,3.3,5.7
	v130.7c0,25.2,11.9,37.9,35.7,37.9c11.6,0,20.4-3.2,26.7-9.5c6.2-6.3,9.3-15.8,9.3-28.4V379.4c0-5.2,3.7-7.7,11.2-7.7
	c3,0,5.6,0.7,7.9,2c2.2,1.3,3.3,3.2,3.3,5.7v227.1c0,20.1-5.3,34.8-16,44.1s-24.8,14-42.4,14s-31.7-4.7-42.3-14
	C524,641.2,518.7,626.5,518.7,606.4z"/>
<path class="st0" d="M658.9,655.8c0-2.3,0.7-4.9,2.1-7.7l86.1-159.7h-76.8c-2.5,0-4.4-1-5.7-2.9c-1.3-2-2-4.4-2-7.2
	c0-2.8,0.7-5.2,2-7.2s3.2-2.9,5.7-2.9h98.1c5.2,0,7.7,2.2,7.7,6.7c0,2.5-0.9,5.3-2.7,8.5l-85.9,159.5H772c2.3,0,4.2,1,5.7,3.1
	c1.5,2,2.3,4.4,2.3,7.1c0,2.7-0.8,5-2.3,7.1c-1.5,2-3.4,3.1-5.7,3.1H666.7C661.5,663,658.9,660.6,658.9,655.8z"/>
<path class="st0" d="M803.5,606.4v-227c0-2.5,1.1-4.4,3.3-5.7c2.2-1.3,4.8-2,7.9-2c3,0,5.6,0.7,7.9,2c2.2,1.3,3.3,3.2,3.3,5.7v227.1
	c0,25.2,11.9,37.9,35.7,37.9c11.6,0,20.4-3.2,26.7-9.5c6.2-6.3,9.3-15.8,9.3-28.4V475.8c0-5.2,3.7-7.7,11.2-7.7c3,0,5.6,0.7,7.9,2
	c2.2,1.3,3.3,3.2,3.3,5.7v130.7c0,20.1-5.3,34.8-16,44.1s-24.8,14-42.4,14s-31.7-4.7-42.3-14C808.8,641.2,803.5,626.5,803.5,606.4z"
	/>
<path class="st1" d="M880.1,440.3c-107.1,13.3-214.2,13.3-321.3,0v-32.1c107.1,19.6,214.2,19.6,321.3,0V440.3z"/>
<path class="st1" d="M767.7,369.8v-11.3h-96.4v11.3c-26.7-2.1-53.5-5.8-80.3-11.3v32.1c85.7,12.5,171.4,12.5,257,0v-32.1
	C821.2,364,794.5,367.7,767.7,369.8z"/>
</svg>
